<svg width="100" height="101" viewBox="0 0 100 101" fill="none" xmlns="http://www.w3.org/2000/svg">
<g filter="url(#filter0_d_77_1246)">
<mask id="path-1-outside-1_77_1246" maskUnits="userSpaceOnUse" x="4" y="-0.5" width="84" height="85" fill="black">
<rect fill="white" x="4" y="-0.5" width="84" height="85"/>
<path d="M10.543 79.9C13.4763 70.9667 16.2763 62.2667 18.943 53.8C20.0763 50.3333 21.243 46.6333 22.443 42.7C23.643 38.7667 24.843 34.8333 26.043 30.9C27.243 26.9 28.3763 23.0667 29.443 19.4C30.5096 15.7333 31.4096 12.4667 32.143 9.59999C35.8096 9.59999 39.2763 9.4 42.543 9C44.2096 8.8 45.9096 8.6 47.643 8.4C49.443 8.2 51.2763 8.03333 53.143 7.9L52.543 12.8C52.4096 13.7333 52.2763 14.7 52.143 15.7C52.0096 16.6333 51.8763 17.6 51.743 18.6C51.6096 19.6 51.443 20.6333 51.243 21.7C51.043 22.7 50.8763 23.7333 50.743 24.8C50.4763 26.8667 50.0763 29.7667 49.543 33.5C49.0096 37.1667 48.3763 41.1667 47.643 45.5H48.943C50.8763 40.4333 52.4763 36.2333 53.743 32.9C55.0096 29.5 56.043 26.7333 56.843 24.6C57.9763 21.4667 59.2096 18.3 60.543 15.1C61.8763 11.9 62.9763 9.43333 63.843 7.7C65.443 7.56666 67.343 7.36666 69.543 7.1C71.8096 6.76666 74.0763 6.4 76.343 5.99999C78.6763 5.59999 80.6763 5.26666 82.343 4.99999C81.4096 10.6 80.543 16.2667 79.743 22C79.0096 27.6667 78.343 33.1 77.743 38.3C77.2096 43.4333 76.743 48.0667 76.343 52.2C75.943 56.3333 75.5763 60.4333 75.243 64.5C74.9096 68.5 74.5763 72.4667 74.243 76.4L56.843 79.5C56.843 79.3667 56.943 77.8667 57.143 75C57.343 72.1333 57.6763 68.5667 58.143 64.3C58.6096 60.0333 59.0763 56 59.543 52.2C60.0096 48.3333 60.4763 45.1667 60.943 42.7H60.043C58.3763 47.7667 56.343 53.3 53.943 59.3C51.6096 65.3 49.3096 71.9333 47.043 79.2C44.7096 79.2667 42.7096 79.3667 41.043 79.5C39.3763 79.5667 37.443 79.6667 35.243 79.8L38.443 42.7H36.943C36.8763 43.4333 36.5763 44.8667 36.043 47C35.5096 49.0667 34.8763 51.4667 34.143 54.2C33.4096 56.8667 32.643 59.5333 31.843 62.2C28.843 72.6667 27.243 78.2 27.043 78.8L10.543 79.9Z"/>
</mask>
<path d="M10.543 79.9C13.4763 70.9667 16.2763 62.2667 18.943 53.8C20.0763 50.3333 21.243 46.6333 22.443 42.7C23.643 38.7667 24.843 34.8333 26.043 30.9C27.243 26.9 28.3763 23.0667 29.443 19.4C30.5096 15.7333 31.4096 12.4667 32.143 9.59999C35.8096 9.59999 39.2763 9.4 42.543 9C44.2096 8.8 45.9096 8.6 47.643 8.4C49.443 8.2 51.2763 8.03333 53.143 7.9L52.543 12.8C52.4096 13.7333 52.2763 14.7 52.143 15.7C52.0096 16.6333 51.8763 17.6 51.743 18.6C51.6096 19.6 51.443 20.6333 51.243 21.7C51.043 22.7 50.8763 23.7333 50.743 24.8C50.4763 26.8667 50.0763 29.7667 49.543 33.5C49.0096 37.1667 48.3763 41.1667 47.643 45.5H48.943C50.8763 40.4333 52.4763 36.2333 53.743 32.9C55.0096 29.5 56.043 26.7333 56.843 24.6C57.9763 21.4667 59.2096 18.3 60.543 15.1C61.8763 11.9 62.9763 9.43333 63.843 7.7C65.443 7.56666 67.343 7.36666 69.543 7.1C71.8096 6.76666 74.0763 6.4 76.343 5.99999C78.6763 5.59999 80.6763 5.26666 82.343 4.99999C81.4096 10.6 80.543 16.2667 79.743 22C79.0096 27.6667 78.343 33.1 77.743 38.3C77.2096 43.4333 76.743 48.0667 76.343 52.2C75.943 56.3333 75.5763 60.4333 75.243 64.5C74.9096 68.5 74.5763 72.4667 74.243 76.4L56.843 79.5C56.843 79.3667 56.943 77.8667 57.143 75C57.343 72.1333 57.6763 68.5667 58.143 64.3C58.6096 60.0333 59.0763 56 59.543 52.2C60.0096 48.3333 60.4763 45.1667 60.943 42.7H60.043C58.3763 47.7667 56.343 53.3 53.943 59.3C51.6096 65.3 49.3096 71.9333 47.043 79.2C44.7096 79.2667 42.7096 79.3667 41.043 79.5C39.3763 79.5667 37.443 79.6667 35.243 79.8L38.443 42.7H36.943C36.8763 43.4333 36.5763 44.8667 36.043 47C35.5096 49.0667 34.8763 51.4667 34.143 54.2C33.4096 56.8667 32.643 59.5333 31.843 62.2C28.843 72.6667 27.243 78.2 27.043 78.8L10.543 79.9Z" fill="#DC3545"/>
<path d="M10.543 79.9L6.7426 78.6521L4.89282 84.2856L10.809 83.8911L10.543 79.9ZM18.943 53.8L15.141 52.557L15.1342 52.5777L15.1277 52.5983L18.943 53.8ZM22.443 42.7L18.6171 41.5328L18.6171 41.5328L22.443 42.7ZM26.043 30.9L29.8689 32.0672L29.8716 32.0583L29.8743 32.0494L26.043 30.9ZM29.443 19.4L33.2838 20.5173L33.2838 20.5173L29.443 19.4ZM32.143 9.59999V5.59999H29.0374L28.2678 8.60866L32.143 9.59999ZM42.543 9L42.0664 5.02848L42.0568 5.02965L42.543 9ZM47.643 8.4L47.2012 4.42446L47.1929 4.4254L47.1845 4.42636L47.643 8.4ZM53.143 7.9L57.1133 8.38616L57.7038 3.56404L52.858 3.91016L53.143 7.9ZM52.543 12.8L56.5028 13.3657L56.5084 13.326L56.5133 13.2862L52.543 12.8ZM52.143 15.7L56.1028 16.2657L56.1054 16.2472L56.1079 16.2287L52.143 15.7ZM51.743 18.6L55.7079 19.1287L55.7079 19.1286L51.743 18.6ZM51.243 21.7L55.1653 22.4845L55.17 22.4608L55.1745 22.4372L51.243 21.7ZM50.743 24.8L54.7101 25.3119L54.7111 25.304L54.7121 25.2961L50.743 24.8ZM49.543 33.5L53.5013 34.0758L53.5028 34.0657L49.543 33.5ZM47.643 45.5L43.699 44.8326L42.9092 49.5H47.643V45.5ZM48.943 45.5V49.5H51.698L52.6801 46.926L48.943 45.5ZM53.743 32.9L57.4821 34.3209L57.4867 34.3087L57.4913 34.2964L53.743 32.9ZM56.843 24.6L60.5883 26.0045L60.5965 25.9826L60.6045 25.9605L56.843 24.6ZM60.543 15.1L64.2353 16.6385L64.2353 16.6385L60.543 15.1ZM63.843 7.7L63.5108 3.71381L61.2706 3.90049L60.2653 5.91114L63.843 7.7ZM69.543 7.1L70.0243 11.0709L70.0747 11.0648L70.1249 11.0574L69.543 7.1ZM76.343 5.99999L75.6671 2.0575L75.6575 2.05916L75.6478 2.06086L76.343 5.99999ZM82.343 4.99999L86.2885 5.65759L87.2029 0.171528L81.711 1.05023L82.343 4.99999ZM79.743 22L75.7814 21.4472L75.7786 21.4669L75.7761 21.4866L79.743 22ZM77.743 38.3L73.7693 37.8415L73.7667 37.8641L73.7644 37.8866L77.743 38.3ZM76.343 52.2L72.3616 51.8147L76.343 52.2ZM75.243 64.5L79.2292 64.8322L79.2296 64.8268L75.243 64.5ZM74.243 76.4L74.9446 80.338L77.9693 79.7991L78.2287 76.7378L74.243 76.4ZM56.843 79.5H52.843V84.2756L57.5446 83.438L56.843 79.5ZM57.143 75L53.1527 74.7216L57.143 75ZM58.143 64.3L62.1193 64.7349L62.1193 64.7349L58.143 64.3ZM59.543 52.2L63.5132 52.6876L63.5142 52.6793L59.543 52.2ZM60.943 42.7L64.8733 43.4436L65.7707 38.7H60.943V42.7ZM60.043 42.7V38.7H57.1479L56.2433 41.4501L60.043 42.7ZM53.943 59.3L50.2291 57.8144L50.2219 57.8323L50.215 57.8502L53.943 59.3ZM47.043 79.2L47.1572 83.1984L50.0113 83.1168L50.8615 80.3911L47.043 79.2ZM41.043 79.5L41.2028 83.4968L41.2825 83.4936L41.362 83.4873L41.043 79.5ZM35.243 79.8L31.2578 79.4563L30.8596 84.073L35.4849 83.7927L35.243 79.8ZM38.443 42.7L42.4282 43.0437L42.8028 38.7H38.443V42.7ZM36.943 42.7V38.7H33.2901L32.9594 42.3379L36.943 42.7ZM36.043 47L39.9161 47.9995L39.9199 47.9848L39.9235 47.9701L36.043 47ZM34.143 54.2L37.9998 55.2606L38.0031 55.2486L38.0063 55.2365L34.143 54.2ZM31.843 62.2L28.0117 61.0506L28.0046 61.0742L27.9978 61.0979L31.843 62.2ZM27.043 78.8L27.309 82.7911L29.9885 82.6125L30.8377 80.0649L27.043 78.8ZM10.543 79.9L14.3433 81.1479C17.2814 72.2001 20.0864 63.4846 22.7582 55.0016L18.943 53.8L15.1277 52.5983C12.4662 61.0487 9.67118 69.7333 6.7426 78.6521L10.543 79.9ZM18.943 53.8L22.745 55.043C23.8875 51.5482 25.0621 47.8228 26.2689 43.8672L22.443 42.7L18.6171 41.5328C17.4238 45.4439 16.2651 49.1185 15.141 52.557L18.943 53.8ZM22.443 42.7L26.2689 43.8672C27.4689 39.9339 28.6689 36.0006 29.8689 32.0672L26.043 30.9L22.2171 29.7328C21.0171 33.6661 19.8171 37.5994 18.6171 41.5328L22.443 42.7ZM26.043 30.9L29.8743 32.0494C31.0772 28.0397 32.2137 24.1956 33.2838 20.5173L29.443 19.4L25.6022 18.2827C24.5389 21.9377 23.4088 25.7603 22.2117 29.7506L26.043 30.9ZM29.443 19.4L33.2838 20.5173C34.3593 16.8201 35.2715 13.5102 36.0182 10.5913L32.143 9.59999L28.2678 8.60866C27.5478 11.4231 26.66 14.6465 25.6022 18.2827L29.443 19.4ZM32.143 9.59999V13.6C35.9541 13.6 39.5842 13.3922 43.0291 12.9703L42.543 9L42.0568 5.02965C38.9684 5.40782 35.6652 5.59999 32.143 5.59999V9.59999ZM42.543 9L43.0196 12.9715C44.68 12.7723 46.3739 12.573 48.1015 12.3736L47.643 8.4L47.1845 4.42636C45.4454 4.62703 43.7393 4.82774 42.0664 5.02849L42.543 9ZM47.643 8.4L48.0847 12.3755C49.8309 12.1815 51.6119 12.0196 53.428 11.8898L53.143 7.9L52.858 3.91016C50.9407 4.04711 49.0551 4.21848 47.2012 4.42446L47.643 8.4ZM53.143 7.9L49.1726 7.41383L48.5726 12.3138L52.543 12.8L56.5133 13.2862L57.1133 8.38616L53.143 7.9ZM52.543 12.8L48.5832 12.2343C48.448 13.1808 48.3129 14.1598 48.1781 15.1713L52.143 15.7L56.1079 16.2287C56.2397 15.2402 56.3713 14.2859 56.5028 13.3657L52.543 12.8ZM52.143 15.7L48.1832 15.1343C48.048 16.0808 47.9129 17.0598 47.7781 18.0713L51.743 18.6L55.7079 19.1286C55.8397 18.1402 55.9713 17.1859 56.1028 16.2657L52.143 15.7ZM51.743 18.6L47.7781 18.0713C47.6547 18.9966 47.4995 19.9602 47.3115 20.9628L51.243 21.7L55.1745 22.4372C55.3865 21.3064 55.5646 20.2034 55.7079 19.1287L51.743 18.6ZM51.243 21.7L47.3206 20.9155C47.1006 22.016 46.9186 23.1457 46.7739 24.3039L50.743 24.8L54.7121 25.2961C54.834 24.321 54.9854 23.384 55.1653 22.4845L51.243 21.7ZM50.743 24.8L46.7759 24.2881C46.5127 26.328 46.1156 29.2071 45.5832 32.9343L49.543 33.5L53.5028 34.0657C54.037 30.3262 54.44 27.4054 54.7101 25.3119L50.743 24.8ZM49.543 33.5L45.5846 32.9242C45.0565 36.5553 44.4281 40.5243 43.699 44.8326L47.643 45.5L51.5869 46.1674C52.3245 41.809 52.9628 37.778 53.5013 34.0758L49.543 33.5ZM47.643 45.5V49.5H48.943V45.5V41.5H47.643V45.5ZM48.943 45.5L52.6801 46.926C54.6138 41.8584 56.2145 37.6566 57.4821 34.3209L53.743 32.9L50.0038 31.4791C48.7381 34.8101 47.1388 39.0082 45.2058 44.074L48.943 45.5ZM53.743 32.9L57.4913 34.2964C58.7575 30.8978 59.7897 28.1341 60.5883 26.0045L56.843 24.6L53.0977 23.1955C52.2962 25.3326 51.2618 28.1022 49.9946 31.5036L53.743 32.9ZM56.843 24.6L60.6045 25.9605C61.7153 22.8894 62.9254 19.7821 64.2353 16.6385L60.543 15.1L56.8507 13.5615C55.4938 16.8179 54.2373 20.0439 53.0815 23.2395L56.843 24.6ZM60.543 15.1L64.2353 16.6385C65.5561 13.4684 66.615 11.1001 67.4207 9.48885L63.843 7.7L60.2653 5.91114C59.3376 7.76652 58.1965 10.3316 56.8507 13.5615L60.543 15.1ZM63.843 7.7L64.1751 11.6862C65.8396 11.5475 67.7918 11.3415 70.0243 11.0709L69.543 7.1L69.0616 3.12906C66.8941 3.39179 65.0463 3.58585 63.5108 3.71381L63.843 7.7ZM69.543 7.1L70.1249 11.0574C72.4296 10.7185 74.734 10.3457 77.0381 9.93913L76.343 5.99999L75.6478 2.06086C73.4186 2.45425 71.1897 2.81481 68.961 3.14256L69.543 7.1ZM76.343 5.99999L77.0188 9.94248C79.3429 9.54408 81.3274 9.21336 82.9749 8.94976L82.343 4.99999L81.711 1.05023C80.0252 1.31996 78.0098 1.65591 75.6671 2.0575L76.343 5.99999ZM82.343 4.99999L78.3974 4.3424C77.4581 9.97794 76.5861 15.6796 75.7814 21.4472L79.743 22L83.7046 22.5528C84.4998 16.8538 85.3611 11.2221 86.2885 5.65759L82.343 4.99999ZM79.743 22L75.7761 21.4866C75.0406 27.1699 74.3716 32.6216 73.7693 37.8415L77.743 38.3L81.7166 38.7585C82.3143 33.5784 82.9787 28.1634 83.7099 22.5134L79.743 22ZM77.743 38.3L73.7644 37.8866C73.2303 43.0272 72.7627 47.6701 72.3616 51.8147L76.343 52.2L80.3244 52.5853C80.7233 48.4632 81.189 43.8395 81.7216 38.7134L77.743 38.3ZM76.343 52.2L72.3616 51.8147C71.9597 55.9672 71.5913 60.0867 71.2563 64.1732L75.243 64.5L79.2296 64.8268C79.5613 60.78 79.9262 56.6995 80.3244 52.5853L76.343 52.2ZM75.243 64.5L71.2568 64.1678C70.9236 68.166 70.5904 72.1308 70.2573 76.0622L74.243 76.4L78.2287 76.7378C78.5622 72.8025 78.8957 68.834 79.2292 64.8322L75.243 64.5ZM74.243 76.4L73.5414 72.462L56.1414 75.562L56.843 79.5L57.5446 83.438L74.9446 80.338L74.243 76.4ZM56.843 79.5H60.843C60.843 79.6234 60.837 79.6704 60.8542 79.3882C60.8661 79.1949 60.8843 78.9137 60.9091 78.5411C60.9587 77.7973 61.0334 76.7106 61.1333 75.2784L57.143 75L53.1527 74.7216C52.9634 77.435 52.843 79.1816 52.843 79.5H56.843ZM57.143 75L61.1333 75.2784C61.3283 72.4826 61.6558 68.9722 62.1193 64.7349L58.143 64.3L54.1667 63.8651C53.6968 68.1612 53.3576 71.784 53.1527 74.7216L57.143 75ZM58.143 64.3L62.1193 64.7349C62.5842 60.4837 63.0489 56.4681 63.5131 52.6876L59.543 52.2L55.5728 51.7124C55.1037 55.5319 54.635 59.5829 54.1667 63.8651L58.143 64.3ZM59.543 52.2L63.5142 52.6793C63.9753 48.8587 64.4296 45.7888 64.8733 43.4436L60.943 42.7L57.0127 41.9564C56.5231 44.5445 56.044 47.808 55.5718 51.7207L59.543 52.2ZM60.943 42.7V38.7H60.043V42.7V46.7H60.943V42.7ZM60.043 42.7L56.2433 41.4501C54.6075 46.4229 52.6042 51.8765 50.2291 57.8144L53.943 59.3L57.6569 60.7856C60.0817 54.7235 62.1451 49.1105 63.8427 43.9499L60.043 42.7ZM53.943 59.3L50.215 57.8502C47.8432 63.949 45.5136 70.6702 43.2244 78.0089L47.043 79.2L50.8615 80.3911C53.1057 73.1965 55.3761 66.651 57.671 60.7498L53.943 59.3ZM47.043 79.2L46.9287 75.2016C44.5515 75.2696 42.4795 75.3723 40.724 75.5127L41.043 79.5L41.362 83.4873C42.9398 83.361 44.8677 83.2638 47.1572 83.1984L47.043 79.2ZM41.043 79.5L40.8831 75.5032C39.182 75.5712 37.2202 75.6728 35.001 75.8073L35.243 79.8L35.4849 83.7927C37.6657 83.6605 39.5706 83.5621 41.2028 83.4968L41.043 79.5ZM35.243 79.8L39.2282 80.1437L42.4282 43.0437L38.443 42.7L34.4578 42.3563L31.2578 79.4563L35.243 79.8ZM38.443 42.7V38.7H36.943V42.7V46.7H38.443V42.7ZM36.943 42.7L32.9594 42.3379C32.9254 42.7122 32.7082 43.8467 32.1624 46.0299L36.043 47L39.9235 47.9701C40.4444 45.8866 40.8272 44.1545 40.9265 43.0621L36.943 42.7ZM36.043 47L32.1699 46.0005C31.6405 48.0516 31.0106 50.4388 30.2796 53.1635L34.143 54.2L38.0063 55.2365C38.742 52.4946 39.3787 50.0817 39.9161 47.9995L36.043 47ZM34.143 54.2L30.2861 53.1394C29.561 55.7762 28.8029 58.4132 28.0117 61.0506L31.843 62.2L35.6743 63.3494C36.4831 60.6534 37.2582 57.9572 37.9998 55.2606L34.143 54.2ZM31.843 62.2L27.9978 61.0979C26.498 66.3303 25.3491 70.3268 24.5504 73.0889C24.1509 74.4705 23.8401 75.5395 23.6173 76.2986C23.5058 76.6786 23.4177 76.9762 23.3523 77.1944C23.3195 77.3036 23.2937 77.3885 23.2743 77.4515C23.2528 77.5213 23.2458 77.5425 23.2482 77.5351L27.043 78.8L30.8377 80.0649C31.0734 79.3577 32.7128 73.6829 35.6881 63.3021L31.843 62.2ZM27.043 78.8L26.7769 74.8089L10.2769 75.9089L10.543 79.9L10.809 83.8911L27.309 82.7911L27.043 78.8Z" fill="#222222" mask="url(#path-1-outside-1_77_1246)"/>
</g>
<defs>
<filter id="filter0_d_77_1246" x="0.892822" y="0.171631" width="98.3101" height="100.114" filterUnits="userSpaceOnUse" color-interpolation-filters="sRGB">
<feFlood flood-opacity="0" result="BackgroundImageFix"/>
<feColorMatrix in="SourceAlpha" type="matrix" values="0 0 0 0 0 0 0 0 0 0 0 0 0 0 0 0 0 0 127 0" result="hardAlpha"/>
<feOffset dx="4" dy="8"/>
<feGaussianBlur stdDeviation="4"/>
<feComposite in2="hardAlpha" operator="out"/>
<feColorMatrix type="matrix" values="0 0 0 0 0 0 0 0 0 0 0 0 0 0 0 0 0 0 0.2 0"/>
<feBlend mode="normal" in2="BackgroundImageFix" result="effect1_dropShadow_77_1246"/>
<feBlend mode="normal" in="SourceGraphic" in2="effect1_dropShadow_77_1246" result="shape"/>
</filter>
</defs>
</svg>
